<?xml version="1.0" encoding="UTF-8"?>
<svg id="logo-icon-version" data-name="lurami-clothing" xmlns="http://www.w3.org/2000/svg" viewBox="0 0 283.46 283.46"
    width="64" height="64" fill="#ff6600">
    <path
        d="M114.57,245.13c-27.81,0-50.2-19.32-54.1-45.79-1.8-12.16.13-23.73,6.91-34.19,5.65-8.72,13.9-14.22,23.35-18.09a103,103,0,0,1,29.1-6.92c14-1.36,28-2.33,42.05-3.57a26.09,26.09,0,0,0,12.77-5.12c7-4.94,11.88-11.63,15.51-19.2,2.3-4.78,6.7-18.76,7.32-20.67,3.41-10.53,13.43-16.73,24.67-15.36,10.26,1.25,18.49,10.08,19.29,20.68a22.72,22.72,0,0,1-17.81,23.83c-9.5,2.25-18.08,6.71-26,12.32a58.1,58.1,0,0,0-19.08,21.64c-2.4,4.82-3.4,10-4.64,15.18-2.82,11.69-5.86,23.33-8.8,35a51.53,51.53,0,0,1-12,22.53C142.37,239,129,244.79,114.57,245.13Z" />
    <path
        d="M186.85,80.54c.31,25.8-21.19,48.15-48.5,47.74a47.71,47.71,0,1,1,2-95.4C165.57,33.41,187,54.28,186.85,80.54Z" />
    <path d="M78.94,129.72a18.49,18.49,0,1,1-18.45-18.61A18.53,18.53,0,0,1,78.94,129.72Z" />
    <path
        d="M194.77,233.82v12.46h-3.28V233.82h-4.27v-2.64h11.55v2.64Zm17.64,12.46.05-12-3.09,12h-2.64l-3.19-12.14.19,12.14h-3.1l.05-15.1h4.82l2.59,10.6,2.51-10.6h4.77l0,15.1Z" />
</svg>